<svg width="8" height="6" viewBox="0 0 8 6" fill="none" xmlns="http://www.w3.org/2000/svg">
<path d="M8 1.16533C8 1.1012 7.96794 1.02906 7.91984 0.980961L7.51904 0.58016C7.47094 0.532064 7.3988 0.5 7.33467 0.5C7.27054 0.5 7.1984 0.532064 7.1503 0.58016L4 3.73046L0.849699 0.58016C0.801603 0.532064 0.729459 0.5 0.665331 0.5C0.593186 0.5 0.529058 0.532064 0.480962 0.58016L0.0801603 0.980961C0.0320641 1.02906 0 1.1012 0 1.16533C0 1.22946 0.0320641 1.3016 0.0801603 1.3497L3.81563 5.08517C3.86373 5.13327 3.93587 5.16533 4 5.16533C4.06413 5.16533 4.13627 5.13327 4.18437 5.08517L7.91984 1.3497C7.96794 1.3016 8 1.22946 8 1.16533Z" fill="#C4C4C4"/>
</svg>
